999
dxflib 3.26.4.0
  0
SECTION
  2
HEADER
  9
$ACADVER
  1
AC1015
  9
$HANDSEED
  5
FFFF
  9
$DIMADEC
 70
0
  9
$DIMASZ
 40
500.0
  9
$DIMATFIT
 70
0
  9
$DIMAUNIT
 70
0
  9
$DIMAZIN
 70
2
  9
$DIMBLK
  1

  9
$DIMDEC
 70
4
  9
$DIMDLI
 40
1000.0
  9
$DIMDSEP
 70
46
  9
$DIMEXE
 40
250.0
  9
$DIMEXO
 40
125.0
  9
$DIMGAP
 40
125.0
  9
$DIMLFAC
 40
1.0
  9
$DIMLUNIT
 70
2
  9
$DIMSCALE
 40
1.0
  9
$DIMTAD
 70
1
  9
$DIMTIH
 70
0
  9
$DIMTSZ
 40
0.0
  9
$DIMTXT
 40
500.0
  9
$DIMZIN
 70
8
  9
$DWGCODEPAGE
  3
ANSI_1252
  9
$INSUNITS
 70
4
  9
$LTSCALE
 40
1.0
  9
$MAXACTVP
 70
64
  9
$MEASUREMENT
 70
1
  9
$MIRRTEXT
 70
0
  9
$PDMODE
 70
0
  9
$PDSIZE
 40
0.0
  0
ENDSEC
  0
SECTION
  2
TABLES
  0
TABLE
  2
VPORT
  5
8
100
AcDbSymbolTable
 70
1
  0
VPORT
  5
30
100
AcDbSymbolTableRecord
100
AcDbViewportTableRecord
  2
*Active
 70
0
 10
0.0
 20
0.0
 11
1.0
 21
1.0
 12
286.3055555555554861
 22
148.5
 13
0.0
 23
0.0
 14
10.0
 24
10.0
 15
10.0
 25
10.0
 16
0.0
 26
0.0
 36
1.0
 17
0.0
 27
0.0
 37
0.0
 40
297.0
 41
1.92798353909465
 42
50.0
 43
0.0
 44
0.0
 50
0.0
 51
0.0
 71
0
 72
100
 73
1
 74
3
 75
1
 76
1
 77
0
 78
0
281
0
 65
1
110
0.0
120
0.0
130
0.0
111
1.0
121
0.0
131
0.0
112
0.0
122
1.0
132
0.0
 79
0
146
0.0
  0
ENDTAB
  0
TABLE
  2
LTYPE
  5
5
100
AcDbSymbolTable
 70
41
  0
LTYPE
  5
16
100
AcDbSymbolTableRecord
100
AcDbLinetypeTableRecord
  2
Continuous
 70
0
  3
Solid line
 72
65
 73
0
 40
0.0
  0
LTYPE
  5
31
100
AcDbSymbolTableRecord
100
AcDbLinetypeTableRecord
  2
DOT2
 70
0
  3
Dot (.5x) ........................................
 72
65
 73
2
 40
3.1749999999999998
 49
0.0
 74
0
 49
-3.1749999999999998
 74
0
  0
LTYPE
  5
32
100
AcDbSymbolTableRecord
100
AcDbLinetypeTableRecord
  2
ACAD_ISO08W100
 70
0
  3
ISO long-dash short-dash ____ __ ____ __ ____ _
 72
65
 73
4
 40
36.0
 49
24.0
 74
0
 49
-3.0
 74
0
 49
6.0
 74
0
 49
-3.0
 74
0
  0
LTYPE
  5
33
100
AcDbSymbolTableRecord
100
AcDbLinetypeTableRecord
  2
DASHDOTX2
 70
0
  3
Dash dot (2x) ____  .  ____  .  ____  .  ___
 72
65
 73
4
 40
50.7999999999999972
 49
25.3999999999999986
 74
0
 49
-12.6999999999999993
 74
0
 49
0.0
 74
0
 49
-12.6999999999999993
 74
0
  0
LTYPE
  5
34
100
AcDbSymbolTableRecord
100
AcDbLinetypeTableRecord
  2
CENTERX2
 70
0
  3
Center (2x) ________  __  ________  __  _____
 72
65
 73
4
 40
101.6000000000000085
 49
63.5
 74
0
 49
-12.6999999999999993
 74
0
 49
12.6999999999999993
 74
0
 49
-12.6999999999999993
 74
0
  0
LTYPE
  5
35
100
AcDbSymbolTableRecord
100
AcDbLinetypeTableRecord
  2
DIVIDEX2
 70
0
  3
Divide (2x) ________  .  .  ________  .  .  _
 72
65
 73
6
 40
63.5
 49
25.3999999999999986
 74
0
 49
-12.6999999999999993
 74
0
 49
0.0
 74
0
 49
-12.6999999999999993
 74
0
 49
0.0
 74
0
 49
-12.6999999999999993
 74
0
  0
LTYPE
  5
36
100
AcDbSymbolTableRecord
100
AcDbLinetypeTableRecord
  2
DASHED2
 70
0
  3
Dashed (.5x) _ _ _ _ _ _ _ _ _ _ _ _ _ _ _ _ _ 
 72
65
 73
2
 40
9.5249999999999986
 49
6.3499999999999996
 74
0
 49
-3.1749999999999998
 74
0
  0
LTYPE
  5
37
100
AcDbSymbolTableRecord
100
AcDbLinetypeTableRecord
  2
ACAD_ISO05W100
 70
0
  3
ISO long-dash double-dot ____ .. ____ .. ____ . 
 72
65
 73
6
 40
33.0
 49
24.0
 74
0
 49
-3.0
 74
0
 49
0.0
 74
0
 49
-3.0
 74
0
 49
0.0
 74
0
 49
-3.0
 74
0
  0
LTYPE
  5
38
100
AcDbSymbolTableRecord
100
AcDbLinetypeTableRecord
  2
ACAD_ISO07W100
 70
0
  3
ISO dot . . . . . . . . . . . . . . . . . . . . 
 72
65
 73
2
 40
3.0
 49
0.0
 74
0
 49
-3.0
 74
0
  0
LTYPE
  5
39
100
AcDbSymbolTableRecord
100
AcDbLinetypeTableRecord
  2
DOT
 70
0
  3
Dot . . . . . . . . . . . . . . . . . . . . . . . .
 72
65
 73
2
 40
6.3499999999999996
 49
0.0
 74
0
 49
-6.3499999999999996
 74
0
  0
LTYPE
  5
3A
100
AcDbSymbolTableRecord
100
AcDbLinetypeTableRecord
  2
PHANTOM
 70
0
  3
Phantom ______  __  __  ______  __  __  ______ 
 72
65
 73
6
 40
63.5000000000000071
 49
31.75
 74
0
 49
-6.3499999999999996
 74
0
 49
6.3499999999999996
 74
0
 49
-6.3499999999999996
 74
0
 49
6.3499999999999996
 74
0
 49
-6.3499999999999996
 74
0
  0
LTYPE
  5
3B
100
AcDbSymbolTableRecord
100
AcDbLinetypeTableRecord
  2
HIDDEN2
 70
0
  3
Hidden (.5x) _ _ _ _ _ _ _ _ _ _ _ _ _ _ _ _ _ 
 72
65
 73
2
 40
4.7624999999999993
 49
3.1749999999999998
 74
0
 49
-1.5874999999999999
 74
0
  0
LTYPE
  5
15
100
AcDbSymbolTableRecord
100
AcDbLinetypeTableRecord
  2
BYLAYER
 70
0
  3

 72
65
 73
0
 40
0.0
  0
LTYPE
  5
3C
100
AcDbSymbolTableRecord
100
AcDbLinetypeTableRecord
  2
HIDDENX2
 70
0
  3
Hidden (2x) ____ ____ ____ ____ ____ ____ ____ 
 72
65
 73
2
 40
19.0499999999999972
 49
12.6999999999999993
 74
0
 49
-6.3499999999999996
 74
0
  0
LTYPE
  5
3D
100
AcDbSymbolTableRecord
100
AcDbLinetypeTableRecord
  2
BORDER2
 70
0
  3
Border (.5x) __.__.__.__.__.__.__.__.__.__.__.
 72
65
 73
6
 40
22.2249999999999979
 49
6.3499999999999996
 74
0
 49
-3.1749999999999998
 74
0
 49
6.3499999999999996
 74
0
 49
-3.1749999999999998
 74
0
 49
0.0
 74
0
 49
-3.1749999999999998
 74
0
  0
LTYPE
  5
3E
100
AcDbSymbolTableRecord
100
AcDbLinetypeTableRecord
  2
DASHEDX2
 70
0
  3
Dashed (2x) ____  ____  ____  ____  ____  ___
 72
65
 73
2
 40
38.0999999999999943
 49
25.3999999999999986
 74
0
 49
-12.6999999999999993
 74
0
  0
LTYPE
  5
3F
100
AcDbSymbolTableRecord
100
AcDbLinetypeTableRecord
  2
DASHDOT
 70
0
  3
Dash dot __ . __ . __ . __ . __ . __ . __ . __
 72
65
 73
4
 40
25.3999999999999986
 49
12.6999999999999993
 74
0
 49
-6.3499999999999996
 74
0
 49
0.0
 74
0
 49
-6.3499999999999996
 74
0
  0
LTYPE
  5
40
100
AcDbSymbolTableRecord
100
AcDbLinetypeTableRecord
  2
PHANTOMX2
 70
0
  3
Phantom (2x) ____________    ____    ____   _
 72
65
 73
6
 40
127.0000000000000142
 49
63.5
 74
0
 49
-12.6999999999999993
 74
0
 49
12.6999999999999993
 74
0
 49
-12.6999999999999993
 74
0
 49
12.6999999999999993
 74
0
 49
-12.6999999999999993
 74
0
  0
LTYPE
  5
41
100
AcDbSymbolTableRecord
100
AcDbLinetypeTableRecord
  2
DASHDOT2
 70
0
  3
Dash dot (.5x) _._._._._._._._._._._._._._._.
 72
65
 73
4
 40
12.6999999999999993
 49
6.3499999999999996
 74
0
 49
-3.1749999999999998
 74
0
 49
0.0
 74
0
 49
-3.1749999999999998
 74
0
  0
LTYPE
  5
42
100
AcDbSymbolTableRecord
100
AcDbLinetypeTableRecord
  2
ACAD_ISO15W100
 70
0
  3
ISO double-dash triple-dot __ __ . . . __ __ . .
 72
65
 73
10
 40
39.0
 49
12.0
 74
0
 49
-3.0
 74
0
 49
12.0
 74
0
 49
-3.0
 74
0
 49
0.0
 74
0
 49
-3.0
 74
0
 49
0.0
 74
0
 49
-3.0
 74
0
 49
0.0
 74
0
 49
-3.0
 74
0
  0
LTYPE
  5
43
100
AcDbSymbolTableRecord
100
AcDbLinetypeTableRecord
  2
ACAD_ISO06W100
 70
0
  3
ISO long-dash triple-dot ____ ... ____ ... ____
 72
65
 73
8
 40
36.0
 49
24.0
 74
0
 49
-3.0
 74
0
 49
0.0
 74
0
 49
-3.0
 74
0
 49
0.0
 74
0
 49
-3.0
 74
0
 49
0.0
 74
0
 49
-3.0
 74
0
  0
LTYPE
  5
44
100
AcDbSymbolTableRecord
100
AcDbLinetypeTableRecord
  2
CENTER2
 70
0
  3
Center (.5x) ___ _ ___ _ ___ _ ___ _ ___ _ ___
 72
65
 73
4
 40
28.5750000000000028
 49
19.0500000000000007
 74
0
 49
-3.1749999999999998
 74
0
 49
3.1749999999999998
 74
0
 49
-3.1749999999999998
 74
0
  0
LTYPE
  5
45
100
AcDbSymbolTableRecord
100
AcDbLinetypeTableRecord
  2
BORDERX2
 70
0
  3
Border (2x) ____  ____  .  ____  ____  .  ___
 72
65
 73
6
 40
88.8999999999999915
 49
25.3999999999999986
 74
0
 49
-12.6999999999999993
 74
0
 49
25.3999999999999986
 74
0
 49
-12.6999999999999993
 74
0
 49
0.0
 74
0
 49
-12.6999999999999993
 74
0
  0
LTYPE
  5
46
100
AcDbSymbolTableRecord
100
AcDbLinetypeTableRecord
  2
ACAD_ISO11W100
 70
0
  3
ISO double-dash dot __ __ . __ __ . __ __ . __ _
 72
65
 73
6
 40
33.0
 49
12.0
 74
0
 49
-3.0
 74
0
 49
12.0
 74
0
 49
-3.0
 74
0
 49
0.0
 74
0
 49
-3.0
 74
0
  0
LTYPE
  5
47
100
AcDbSymbolTableRecord
100
AcDbLinetypeTableRecord
  2
ACAD_ISO12W100
 70
0
  3
ISO dash double-dot __ . . __ . . __ . . __ . . 
 72
65
 73
6
 40
21.0
 49
12.0
 74
0
 49
-3.0
 74
0
 49
0.0
 74
0
 49
-3.0
 74
0
 49
0.0
 74
0
 49
-3.0
 74
0
  0
LTYPE
  5
48
100
AcDbSymbolTableRecord
100
AcDbLinetypeTableRecord
  2
DASHED
 70
0
  3
Dashed __ __ __ __ __ __ __ __ __ __ __ __ __ _
 72
65
 73
2
 40
19.0499999999999972
 49
12.6999999999999993
 74
0
 49
-6.3499999999999996
 74
0
  0
LTYPE
  5
49
100
AcDbSymbolTableRecord
100
AcDbLinetypeTableRecord
  2
ACAD_ISO03W100
 70
0
  3
ISO dash space __    __    __    __    __    __
 72
65
 73
2
 40
30.0
 49
12.0
 74
0
 49
-18.0
 74
0
  0
LTYPE
  5
4A
100
AcDbSymbolTableRecord
100
AcDbLinetypeTableRecord
  2
ACAD_ISO04W100
 70
0
  3
ISO long-dash dot ____ . ____ . ____ . ____ . _
 72
65
 73
4
 40
30.0
 49
24.0
 74
0
 49
-3.0
 74
0
 49
0.0
 74
0
 49
-3.0
 74
0
  0
LTYPE
  5
4B
100
AcDbSymbolTableRecord
100
AcDbLinetypeTableRecord
  2
DIVIDE
 70
0
  3
Divide ____ . . ____ . . ____ . . ____ . . ____
 72
65
 73
6
 40
31.75
 49
12.6999999999999993
 74
0
 49
-6.3499999999999996
 74
0
 49
0.0
 74
0
 49
-6.3499999999999996
 74
0
 49
0.0
 74
0
 49
-6.3499999999999996
 74
0
  0
LTYPE
  5
4C
100
AcDbSymbolTableRecord
100
AcDbLinetypeTableRecord
  2
PHANTOM2
 70
0
  3
Phantom (.5x) ___ _ _ ___ _ _ ___ _ _ ___ _ _
 72
65
 73
6
 40
31.7500000000000036
 49
15.875
 74
0
 49
-3.1749999999999998
 74
0
 49
3.1749999999999998
 74
0
 49
-3.1749999999999998
 74
0
 49
3.1749999999999998
 74
0
 49
-3.1749999999999998
 74
0
  0
LTYPE
  5
14
100
AcDbSymbolTableRecord
100
AcDbLinetypeTableRecord
  2
BYBLOCK
 70
0
  3

 72
65
 73
0
 40
0.0
  0
LTYPE
  5
4D
100
AcDbSymbolTableRecord
100
AcDbLinetypeTableRecord
  2
CENTER
 70
0
  3
Center ____ _ ____ _ ____ _ ____ _ ____ _ ____
 72
65
 73
4
 40
50.8000000000000043
 49
31.75
 74
0
 49
-6.3499999999999996
 74
0
 49
6.3499999999999996
 74
0
 49
-6.3499999999999996
 74
0
  0
LTYPE
  5
4E
100
AcDbSymbolTableRecord
100
AcDbLinetypeTableRecord
  2
ACAD_ISO02W100
 70
0
  3
ISO dash __ __ __ __ __ __ __ __ __ __ __ __ __
 72
65
 73
2
 40
15.0
 49
12.0
 74
0
 49
-3.0
 74
0
  0
LTYPE
  5
4F
100
AcDbSymbolTableRecord
100
AcDbLinetypeTableRecord
  2
BORDER
 70
0
  3
Border __ __ . __ __ . __ __ . __ __ . __ __ .
 72
65
 73
6
 40
44.4499999999999957
 49
12.6999999999999993
 74
0
 49
-6.3499999999999996
 74
0
 49
12.6999999999999993
 74
0
 49
-6.3499999999999996
 74
0
 49
0.0
 74
0
 49
-6.3499999999999996
 74
0
  0
LTYPE
  5
50
100
AcDbSymbolTableRecord
100
AcDbLinetypeTableRecord
  2
ACAD_ISO14W100
 70
0
  3
ISO dash triple-dot __ . . . __ . . . __ . . . _
 72
65
 73
8
 40
24.0
 49
12.0
 74
0
 49
-3.0
 74
0
 49
0.0
 74
0
 49
-3.0
 74
0
 49
0.0
 74
0
 49
-3.0
 74
0
 49
0.0
 74
0
 49
-3.0
 74
0
  0
LTYPE
  5
51
100
AcDbSymbolTableRecord
100
AcDbLinetypeTableRecord
  2
ACAD_ISO10W100
 70
0
  3
ISO dash dot __ . __ . __ . __ . __ . __ . __ . 
 72
65
 73
4
 40
18.0
 49
12.0
 74
0
 49
-3.0
 74
0
 49
0.0
 74
0
 49
-3.0
 74
0
  0
LTYPE
  5
52
100
AcDbSymbolTableRecord
100
AcDbLinetypeTableRecord
  2
ACAD_ISO13W100
 70
0
  3
ISO double-dash double-dot __ __ . . __ __ . . _
 72
65
 73
8
 40
36.0
 49
12.0
 74
0
 49
-3.0
 74
0
 49
12.0
 74
0
 49
-3.0
 74
0
 49
0.0
 74
0
 49
-3.0
 74
0
 49
0.0
 74
0
 49
-3.0
 74
0
  0
LTYPE
  5
53
100
AcDbSymbolTableRecord
100
AcDbLinetypeTableRecord
  2
DOTX2
 70
0
  3
Dot (2x) .  .  .  .  .  .  .  .  .  .  .  .  .  .
 72
65
 73
2
 40
12.6999999999999993
 49
0.0
 74
0
 49
-12.6999999999999993
 74
0
  0
LTYPE
  5
54
100
AcDbSymbolTableRecord
100
AcDbLinetypeTableRecord
  2
HIDDEN
 70
0
  3
Hidden __ __ __ __ __ __ __ __ __ __ __ __ __ __
 72
65
 73
2
 40
9.5249999999999986
 49
6.3499999999999996
 74
0
 49
-3.1749999999999998
 74
0
  0
LTYPE
  5
55
100
AcDbSymbolTableRecord
100
AcDbLinetypeTableRecord
  2
ACAD_ISO09W100
 70
0
  3
ISO long-dash double-short-dash ____ __ __ ____
 72
65
 73
6
 40
45.0
 49
24.0
 74
0
 49
-3.0
 74
0
 49
6.0
 74
0
 49
-3.0
 74
0
 49
6.0
 74
0
 49
-3.0
 74
0
  0
LTYPE
  5
56
100
AcDbSymbolTableRecord
100
AcDbLinetypeTableRecord
  2
DIVIDE2
 70
0
  3
Divide (.5x) __..__..__..__..__..__..__..__.._
 72
65
 73
6
 40
15.875
 49
6.3499999999999996
 74
0
 49
-3.1749999999999998
 74
0
 49
0.0
 74
0
 49
-3.1749999999999998
 74
0
 49
0.0
 74
0
 49
-3.1749999999999998
 74
0
  0
ENDTAB
  0
TABLE
  2
LAYER
  5
2
100
AcDbSymbolTable
 70
1
  0
LAYER
  5
10
100
AcDbSymbolTableRecord
100
AcDbLayerTableRecord
  2
0
 70
0
 62
7
420
0
  6
Continuous
370
25
390
F
  0
ENDTAB
  0
TABLE
  2
STYLE
  5
3
100
AcDbSymbolTable
 70
18
  0
STYLE
  5
57
100
AcDbSymbolTableRecord
100
AcDbTextStyleTableRecord
  2
Standard
 70
0
 40
0.0
 41
1.0
 50
0.0
 71
0
 42
2.5
  3

  4

1001
ACAD
1000
txt
1071
0
  0
STYLE
  5
58
100
AcDbSymbolTableRecord
100
AcDbTextStyleTableRecord
  2
textstyle0
 70
0
 40
0.0
 41
1.0
 50
0.0
 71
0
 42
1.0
  3

  4

1001
ACAD
1000
Standard
1071
0
  0
STYLE
  5
59
100
AcDbSymbolTableRecord
100
AcDbTextStyleTableRecord
  2
textstyle1
 70
0
 40
0.0
 41
1.0
 50
0.0
 71
0
 42
1.0
  3

  4

1001
ACAD
1000
Standard
1071
0
  0
STYLE
  5
5A
100
AcDbSymbolTableRecord
100
AcDbTextStyleTableRecord
  2
textstyle2
 70
0
 40
0.0
 41
1.0
 50
0.0
 71
0
 42
1.0
  3

  4

1001
ACAD
1000
Standard
1071
0
  0
STYLE
  5
5B
100
AcDbSymbolTableRecord
100
AcDbTextStyleTableRecord
  2
textstyle3
 70
0
 40
0.0
 41
1.0
 50
0.0
 71
0
 42
1.0
  3

  4

1001
ACAD
1000
Standard
1071
0
  0
STYLE
  5
5C
100
AcDbSymbolTableRecord
100
AcDbTextStyleTableRecord
  2
textstyle4
 70
0
 40
0.0
 41
1.0
 50
0.0
 71
0
 42
1.0
  3

  4

1001
ACAD
1000
Standard
1071
0
  0
STYLE
  5
5D
100
AcDbSymbolTableRecord
100
AcDbTextStyleTableRecord
  2
textstyle5
 70
0
 40
0.0
 41
1.0
 50
0.0
 71
0
 42
1.0
  3

  4

1001
ACAD
1000
Standard
1071
0
  0
STYLE
  5
5E
100
AcDbSymbolTableRecord
100
AcDbTextStyleTableRecord
  2
textstyle6
 70
0
 40
0.0
 41
1.0
 50
0.0
 71
0
 42
1.0
  3

  4

1001
ACAD
1000
Standard
1071
0
  0
STYLE
  5
5F
100
AcDbSymbolTableRecord
100
AcDbTextStyleTableRecord
  2
textstyle7
 70
0
 40
0.0
 41
1.0
 50
0.0
 71
0
 42
1.0
  3

  4

1001
ACAD
1000
Standard
1071
0
  0
STYLE
  5
60
100
AcDbSymbolTableRecord
100
AcDbTextStyleTableRecord
  2
textstyle8
 70
0
 40
0.0
 41
1.0
 50
0.0
 71
0
 42
1.0
  3

  4

1001
ACAD
1000
Standard
1071
0
  0
STYLE
  5
61
100
AcDbSymbolTableRecord
100
AcDbTextStyleTableRecord
  2
textstyle9
 70
0
 40
0.0
 41
1.0
 50
0.0
 71
0
 42
1.0
  3

  4

1001
ACAD
1000
Standard
1071
0
  0
STYLE
  5
62
100
AcDbSymbolTableRecord
100
AcDbTextStyleTableRecord
  2
textstyle10
 70
0
 40
0.0
 41
1.0
 50
0.0
 71
0
 42
1.0
  3

  4

1001
ACAD
1000
Standard
1071
0
  0
STYLE
  5
63
100
AcDbSymbolTableRecord
100
AcDbTextStyleTableRecord
  2
textstyle11
 70
0
 40
0.0
 41
1.0
 50
0.0
 71
0
 42
1.0
  3

  4

1001
ACAD
1000
Standard
1071
0
  0
STYLE
  5
64
100
AcDbSymbolTableRecord
100
AcDbTextStyleTableRecord
  2
textstyle12
 70
0
 40
0.0
 41
1.0
 50
0.0
 71
0
 42
1.0
  3

  4

1001
ACAD
1000
Standard
1071
0
  0
STYLE
  5
65
100
AcDbSymbolTableRecord
100
AcDbTextStyleTableRecord
  2
textstyle13
 70
0
 40
0.0
 41
1.0
 50
0.0
 71
0
 42
1.0
  3

  4

1001
ACAD
1000
Standard
1071
0
  0
STYLE
  5
66
100
AcDbSymbolTableRecord
100
AcDbTextStyleTableRecord
  2
textstyle14
 70
0
 40
0.0
 41
1.0
 50
0.0
 71
0
 42
1.0
  3

  4

1001
ACAD
1000
Standard
1071
0
  0
STYLE
  5
67
100
AcDbSymbolTableRecord
100
AcDbTextStyleTableRecord
  2
textstyle15
 70
0
 40
0.0
 41
1.0
 50
0.0
 71
0
 42
1.0
  3

  4

1001
ACAD
1000
Standard
1071
0
  0
STYLE
  5
68
100
AcDbSymbolTableRecord
100
AcDbTextStyleTableRecord
  2
textstyle16
 70
0
 40
0.0
 41
1.0
 50
0.0
 71
0
 42
1.0
  3

  4

1001
ACAD
1000
Standard
1071
0
  0
ENDTAB
  0
TABLE
  2
VIEW
  5
6
100
AcDbSymbolTable
 70
0
  0
ENDTAB
  0
TABLE
  2
UCS
  5
7
100
AcDbSymbolTable
 70
0
  0
ENDTAB
  0
TABLE
  2
APPID
  5
9
100
AcDbSymbolTable
 70
1
  0
APPID
  5
12
100
AcDbSymbolTableRecord
100
AcDbRegAppTableRecord
  2
ACAD
 70
0
  0
APPID
  5
69
100
AcDbSymbolTableRecord
100
AcDbRegAppTableRecord
  2
QCAD
 70
0
  0
ENDTAB
  0
TABLE
  2
DIMSTYLE
  5
A
100
AcDbSymbolTable
 70
1
100
AcDbDimStyleTable
 71
0
  0
DIMSTYLE
105
27
100
AcDbSymbolTableRecord
100
AcDbDimStyleTableRecord
  2
Standard
 41
500.0
 42
125.0
 43
3.75
 44
250.0
 70
0
 73
0
 74
0
 77
1
 78
8
140
500.0
141
2.5
143
0.03937007874016
147
125.0
171
3
172
1
271
2
272
2
274
3
278
44
283
0
284
8
340
57
  0
ENDTAB
  0
TABLE
  2
BLOCK_RECORD
  5
1
100
AcDbSymbolTable
 70
1
  0
BLOCK_RECORD
  5
1F
100
AcDbSymbolTableRecord
100
AcDbBlockTableRecord
  2
*Model_Space
340
22
  0
BLOCK_RECORD
  5
1B
100
AcDbSymbolTableRecord
100
AcDbBlockTableRecord
  2
*Paper_Space
340
1E
  0
BLOCK_RECORD
  5
23
100
AcDbSymbolTableRecord
100
AcDbBlockTableRecord
  2
*Paper_Space0
340
26
  0
ENDTAB
  0
ENDSEC
  0
SECTION
  2
BLOCKS
  0
BLOCK
  5
20
100
AcDbEntity
  8
0
100
AcDbBlockBegin
  2
*Model_Space
 70
0
 10
0.0
 20
0.0
 30
0.0
  3
*Model_Space
  1

  0
ENDBLK
  5
21
100
AcDbEntity
  8
0
100
AcDbBlockEnd
  0
BLOCK
  5
1C
100
AcDbEntity
 67
1
  8
0
100
AcDbBlockBegin
  2
*Paper_Space
 70
0
 10
0.0
 20
0.0
 30
0.0
  3
*Paper_Space
  1

  0
ENDBLK
  5
1D
100
AcDbEntity
 67
1
  8
0
100
AcDbBlockEnd
  0
BLOCK
  5
24
100
AcDbEntity
  8
0
100
AcDbBlockBegin
  2
*Paper_Space0
 70
0
 10
0.0
 20
0.0
 30
0.0
  3
*Paper_Space0
  1

  0
ENDBLK
  5
25
100
AcDbEntity
  8
0
100
AcDbBlockEnd
  0
ENDSEC
  0
SECTION
  2
ENTITIES
  0
MTEXT
  5
6A
100
AcDbEntity
  8
0
 62
256
370
-1
 48
1.0
  6
BYLAYER
100
AcDbMText
 10
128.0
 20
17.0
 30
0.0
 40
1.0
 41
0.0
 71
7
 72
1
  1
\H2;D1\~\~\~ VIN\PD0\~ \~GND\PRST\~\~RST\PGND \~ +5V\PD2\~ \~A7\PD3\~\~A6\PD4\~ \~A5\PD5\~ \~A4\PD6\~ \~A3\PD7\~ \~A2\PD8\~ \~A1\PD9\~ \~A0\PD10\~ \~AREF\PD11\~ \~3V3\PD12\~ \~D13
  7
textstyle11
 50
0.0
 73
2
 44
1.0
  0
MTEXT
  5
6B
100
AcDbEntity
  8
0
 62
256
370
-1
 48
1.0
  6
BYLAYER
100
AcDbMText
 10
204.7233333333333007
 20
64.8466666666666782
 30
0.0
 40
1.0
 41
0.0
 71
7
 72
1
  1
\H2;GND\~3v3\PCE\~CNS\PSCK\~MOSI\PMISO\~IRQ
  7
textstyle0
 50
0.0
 73
2
 44
1.0
  0
MTEXT
  5
6C
100
AcDbEntity
  8
0
 62
256
370
-1
 48
1.0
  6
BYLAYER
100
AcDbMText
 10
40.0
 20
50.0
 30
0.0
 40
1.0
 41
0.0
 71
7
 72
1
  1
\H2;GND\PECHO\PTRIG\PVcc
  7
textstyle5
 50
0.0
 73
2
 44
1.0
  0
MTEXT
  5
6D
100
AcDbEntity
  8
0
 62
256
370
-1
 48
1.0
  6
BYLAYER
100
AcDbMText
 10
45.1083859259258801
 20
42.6223482962963089
 30
0.0
 40
1.0
 41
0.0
 71
3
 72
1
  1
\H2;GND\PECHO\PTRIG\PVcc
  7
textstyle7
 50
0.0
 73
2
 44
1.0
  0
MTEXT
  5
6E
100
AcDbEntity
  8
0
 62
256
370
-1
 48
1.0
  6
BYLAYER
100
AcDbMText
 10
200.0
 20
0.0
 30
0.0
 40
1.0
 41
0.0
 71
7
 72
1
  1
\H2;GND\PSCL\PSDA\PVCC\P             M1  M2  ... M16      VCC GND
  7
textstyle9
 50
0.0
 73
2
 44
1.0
  0
MTEXT
  5
6F
100
AcDbEntity
  8
0
 62
256
370
-1
 48
1.0
  6
BYLAYER
100
AcDbMText
 10
207.0
 20
-15.0
 30
0.0
 40
1.0
 41
0.0
 71
7
 72
1
  1
Servo1\P\P
  7
textstyle10
 50
0.0
 73
2
 44
1.0
  0
MTEXT
  5
70
100
AcDbEntity
  8
0
 62
256
370
-1
 48
1.0
  6
BYLAYER
100
AcDbMText
 10
215.0
 20
-15.0
 30
0.0
 40
1.0
 41
0.0
 71
7
 72
1
  1
Servo2\P\P
  7
textstyle8
 50
0.0
 73
2
 44
1.0
  0
MTEXT
  5
71
100
AcDbEntity
  8
0
 62
256
370
-1
 48
1.0
  6
BYLAYER
100
AcDbMText
 10
222.0
 20
-12.0
 30
0.0
 40
1.0
 41
0.0
 71
7
 72
1
  1
...  Servo16
  7
textstyle12
 50
0.0
 73
2
 44
1.0
  0
LINE
  5
72
100
AcDbEntity
  8
0
 62
256
370
-1
 48
1.0
  6
BYLAYER
100
AcDbLine
 10
219.0
 20
-1.0
 30
0.0
 11
219.0
 21
-7.0
 31
0.0
  0
LINE
  5
73
100
AcDbEntity
  8
0
 62
256
370
-1
 48
1.0
  6
BYLAYER
100
AcDbLine
 10
219.0
 20
-7.0
 30
0.0
 11
207.0
 21
-7.0
 31
0.0
  0
LINE
  5
74
100
AcDbEntity
  8
0
 62
256
370
-1
 48
1.0
  6
BYLAYER
100
AcDbLine
 10
207.0
 20
-7.0
 30
0.0
 11
207.0
 21
-10.0
 31
0.0
  0
LINE
  5
75
100
AcDbEntity
  8
0
 62
256
370
-1
 48
1.0
  6
BYLAYER
100
AcDbLine
 10
208.0
 20
-10.0
 30
0.0
 11
208.0
 21
-8.0
 31
0.0
  0
LINE
  5
76
100
AcDbEntity
  8
0
 62
256
370
-1
 48
1.0
  6
BYLAYER
100
AcDbLine
 10
208.0
 20
-8.0
 30
0.0
 11
220.0
 21
-8.0
 31
0.0
  0
LINE
  5
77
100
AcDbEntity
  8
0
 62
256
370
-1
 48
1.0
  6
BYLAYER
100
AcDbLine
 10
220.0
 20
-8.0
 30
0.0
 11
220.0
 21
-1.0
 31
0.0
  0
LINE
  5
78
100
AcDbEntity
  8
0
 62
256
370
-1
 48
1.0
  6
BYLAYER
100
AcDbLine
 10
221.0
 20
-1.0
 30
0.0
 11
221.0
 21
-9.0
 31
0.0
  0
LINE
  5
79
100
AcDbEntity
  8
0
 62
256
370
-1
 48
1.0
  6
BYLAYER
100
AcDbLine
 10
221.0
 20
-9.0
 30
0.0
 11
210.0
 21
-9.0
 31
0.0
  0
LINE
  5
7A
100
AcDbEntity
  8
0
 62
256
370
-1
 48
1.0
  6
BYLAYER
100
AcDbLine
 10
210.0
 20
-9.0
 30
0.0
 11
210.0
 21
-10.0
 31
0.0
  0
MTEXT
  5
7B
100
AcDbEntity
  8
0
 62
256
370
-1
 48
1.0
  6
BYLAYER
100
AcDbMText
 10
272.5963199999998778
 20
49.4943253333333359
 30
0.0
 40
1.0
 41
0.0
 71
7
 72
1
  1
\H2;BATT 7.4V\PVCC    GND
  7
textstyle4
 50
0.0
 73
2
 44
1.0
  0
LINE
  5
7C
100
AcDbEntity
  8
0
 62
256
370
-1
 48
1.0
  6
BYLAYER
100
AcDbLine
 10
289.9963199999998551
 20
34.0143253333333391
 30
0.0
 11
270.7963199999998665
 21
34.0143253333333391
 31
0.0
  0
LINE
  5
7D
100
AcDbEntity
  8
0
 62
256
370
-1
 48
1.0
  6
BYLAYER
100
AcDbLine
 10
270.7963199999998665
 20
34.0143253333333391
 30
0.0
 11
270.7963199999998665
 21
44.5743253333333342
 31
0.0
  0
LINE
  5
7E
100
AcDbEntity
  8
0
 62
256
370
-1
 48
1.0
  6
BYLAYER
100
AcDbLine
 10
270.7963199999998665
 20
44.5743253333333342
 30
0.0
 11
289.9963199999998551
 21
44.5743253333333342
 31
0.0
  0
LINE
  5
7F
100
AcDbEntity
  8
0
 62
256
370
-1
 48
1.0
  6
BYLAYER
100
AcDbLine
 10
289.9963199999998551
 20
44.5743253333333342
 30
0.0
 11
289.9963199999998551
 21
34.0143253333333391
 31
0.0
  0
LINE
  5
80
100
AcDbEntity
  8
0
 62
256
370
-1
 48
1.0
  6
BYLAYER
100
AcDbLine
 10
270.916319999999871
 20
56.0943253333333374
 30
0.0
 11
289.9963199999998551
 21
56.0943253333333374
 31
0.0
  0
LINE
  5
81
100
AcDbEntity
  8
0
 62
256
370
-1
 48
1.0
  6
BYLAYER
100
AcDbLine
 10
289.9963199999998551
 20
56.0943253333333374
 30
0.0
 11
289.9963199999998551
 21
47.9343253333333337
 31
0.0
  0
LINE
  5
82
100
AcDbEntity
  8
0
 62
256
370
-1
 48
1.0
  6
BYLAYER
100
AcDbLine
 10
289.9963199999998551
 20
47.9343253333333337
 30
0.0
 11
270.916319999999871
 21
47.9343253333333337
 31
0.0
  0
LINE
  5
83
100
AcDbEntity
  8
0
 62
256
370
-1
 48
1.0
  6
BYLAYER
100
AcDbLine
 10
270.916319999999871
 20
47.9343253333333337
 30
0.0
 11
270.916319999999871
 21
56.0943253333333374
 31
0.0
  0
LINE
  5
84
100
AcDbEntity
  8
0
 62
256
370
-1
 48
1.0
  6
BYLAYER
100
AcDbLine
 10
198.1963199999999006
 20
18.5343253333333493
 30
0.0
 11
259.1563199999998801
 21
18.5343253333333493
 31
0.0
  0
LINE
  5
85
100
AcDbEntity
  8
0
 62
256
370
-1
 48
1.0
  6
BYLAYER
100
AcDbLine
 10
259.1563199999998801
 20
18.5343253333333493
 30
0.0
 11
259.1563199999998801
 21
-1.1456746666666504
 31
0.0
  0
LINE
  5
86
100
AcDbEntity
  8
0
 62
256
370
-1
 48
1.0
  6
BYLAYER
100
AcDbLine
 10
259.1563199999998801
 20
-1.1456746666666504
 30
0.0
 11
198.1963199999999006
 21
-1.1456746666666504
 31
0.0
  0
LINE
  5
87
100
AcDbEntity
  8
0
 62
256
370
-1
 48
1.0
  6
BYLAYER
100
AcDbLine
 10
198.1963199999999006
 20
-1.1456746666666504
 30
0.0
 11
198.1963199999999006
 21
18.5343253333333493
 31
0.0
  0
LINE
  5
88
100
AcDbEntity
  8
0
 62
256
370
-1
 48
1.0
  6
BYLAYER
100
AcDbLine
 10
205.2763199999998847
 20
-10.2656746666666407
 30
0.0
 11
212.1163199999998881
 21
-10.2656746666666407
 31
0.0
  0
LINE
  5
89
100
AcDbEntity
  8
0
 62
256
370
-1
 48
1.0
  6
BYLAYER
100
AcDbLine
 10
212.1163199999998881
 20
-10.2656746666666407
 30
0.0
 11
212.1163199999998881
 21
-13.7456746666666447
 31
0.0
  0
LINE
  5
8A
100
AcDbEntity
  8
0
 62
256
370
-1
 48
1.0
  6
BYLAYER
100
AcDbLine
 10
212.1163199999998881
 20
-13.7456746666666447
 30
0.0
 11
205.2763199999998847
 21
-13.7456746666666447
 31
0.0
  0
LINE
  5
8B
100
AcDbEntity
  8
0
 62
256
370
-1
 48
1.0
  6
BYLAYER
100
AcDbLine
 10
205.2763199999998847
 20
-13.7456746666666447
 30
0.0
 11
205.2763199999998847
 21
-10.2656746666666407
 31
0.0
  0
LINE
  5
8C
100
AcDbEntity
  8
0
 62
256
370
-1
 48
1.0
  6
BYLAYER
100
AcDbLine
 10
213.7963199999998665
 20
-9.9056746666666413
 30
0.0
 11
220.7563199999999028
 21
-9.9056746666666413
 31
0.0
  0
LINE
  5
8D
100
AcDbEntity
  8
0
 62
256
370
-1
 48
1.0
  6
BYLAYER
100
AcDbLine
 10
220.7563199999999028
 20
-9.9056746666666413
 30
0.0
 11
220.7563199999999028
 21
-13.8656746666666493
 31
0.0
  0
LINE
  5
8E
100
AcDbEntity
  8
0
 62
256
370
-1
 48
1.0
  6
BYLAYER
100
AcDbLine
 10
220.7563199999999028
 20
-13.8656746666666493
 30
0.0
 11
213.7963199999998665
 21
-13.8656746666666493
 31
0.0
  0
LINE
  5
8F
100
AcDbEntity
  8
0
 62
256
370
-1
 48
1.0
  6
BYLAYER
100
AcDbLine
 10
213.7963199999998665
 20
-13.8656746666666493
 30
0.0
 11
213.7963199999998665
 21
-9.9056746666666413
 31
0.0
  0
LINE
  5
90
100
AcDbEntity
  8
0
 62
256
370
-1
 48
1.0
  6
BYLAYER
100
AcDbLine
 10
223.3963199999998892
 20
-10.2656746666666407
 30
0.0
 11
230.4763199999998733
 21
-10.2656746666666407
 31
0.0
  0
LINE
  5
91
100
AcDbEntity
  8
0
 62
256
370
-1
 48
1.0
  6
BYLAYER
100
AcDbLine
 10
230.4763199999998733
 20
-10.2656746666666407
 30
0.0
 11
230.4763199999998733
 21
-13.8656746666666493
 31
0.0
  0
LINE
  5
92
100
AcDbEntity
  8
0
 62
256
370
-1
 48
1.0
  6
BYLAYER
100
AcDbLine
 10
230.4763199999998733
 20
-13.8656746666666493
 30
0.0
 11
223.3963199999998892
 21
-13.8656746666666493
 31
0.0
  0
LINE
  5
93
100
AcDbEntity
  8
0
 62
256
370
-1
 48
1.0
  6
BYLAYER
100
AcDbLine
 10
223.3963199999998892
 20
-13.8656746666666493
 30
0.0
 11
223.3963199999998892
 21
-10.2656746666666407
 31
0.0
  0
MTEXT
  5
94
100
AcDbEntity
  8
0
 62
256
370
-1
 48
1.0
  6
BYLAYER
100
AcDbMText
 10
272.0
 20
38.0
 30
0.0
 40
1.0
 41
0.0
 71
7
 72
1
  1
\H2;7.4V->6V 10A
  7
textstyle13
 50
0.0
 73
2
 44
1.0
  0
MTEXT
  5
95
100
AcDbEntity
  8
0
 62
256
370
-1
 48
1.0
  6
BYLAYER
100
AcDbMText
 10
272.0
 20
42.0
 30
0.0
 40
1.0
 41
0.0
 71
7
 72
1
  1
\H2;VCC  in  GND
  7
textstyle2
 50
0.0
 73
2
 44
1.0
  0
MTEXT
  5
96
100
AcDbEntity
  8
0
 62
256
370
-1
 48
1.0
  6
BYLAYER
100
AcDbMText
 10
272.0
 20
35.0
 30
0.0
 40
1.0
 41
0.0
 71
7
 72
1
  1
\H2;VCC out  GND
  7
textstyle14
 50
0.0
 73
2
 44
1.0
  0
LINE
  5
97
100
AcDbEntity
  8
0
 62
256
370
-1
 48
1.0
  6
BYLAYER
100
AcDbLine
 10
275.0
 20
48.0
 30
0.0
 11
275.0
 21
44.5743253333333342
 31
0.0
  0
LINE
  5
98
100
AcDbEntity
  8
0
 62
256
370
-1
 48
1.0
  6
BYLAYER
100
AcDbLine
 10
285.0
 20
48.0
 30
0.0
 11
285.0
 21
44.5743253333333342
 31
0.0
  0
LINE
  5
99
100
AcDbEntity
  8
0
 62
256
370
-1
 48
1.0
  6
BYLAYER
100
AcDbLine
 10
274.0
 20
34.0
 30
0.0
 11
274.0
 21
-3.0
 31
0.0
  0
LINE
  5
9A
100
AcDbEntity
  8
0
 62
256
370
-1
 48
1.0
  6
BYLAYER
100
AcDbLine
 10
274.0
 20
-3.0
 30
0.0
 11
248.0
 21
-3.0
 31
0.0
  0
LINE
  5
9B
100
AcDbEntity
  8
0
 62
256
370
-1
 48
1.0
  6
BYLAYER
100
AcDbLine
 10
248.0
 20
-3.0
 30
0.0
 11
248.0
 21
-1.1456746666666504
 31
0.0
  0
LINE
  5
9C
100
AcDbEntity
  8
0
 62
256
370
-1
 48
1.0
  6
BYLAYER
100
AcDbLine
 10
254.0
 20
-1.0
 30
0.0
 11
254.0
 21
-5.0
 31
0.0
  0
LINE
  5
9D
100
AcDbEntity
  8
0
 62
256
370
-1
 48
1.0
  6
BYLAYER
100
AcDbLine
 10
254.0
 20
-5.0
 30
0.0
 11
287.0
 21
-5.0
 31
0.0
  0
LINE
  5
9E
100
AcDbEntity
  8
0
 62
256
370
-1
 48
1.0
  6
BYLAYER
100
AcDbLine
 10
287.0
 20
-5.0
 30
0.0
 11
287.0
 21
34.0143253333333391
 31
0.0
  0
LINE
  5
9F
100
AcDbEntity
  8
0
 62
256
370
-1
 48
1.0
  6
BYLAYER
100
AcDbLine
 10
125.85376370370372
 20
61.3940964444444504
 30
0.0
 11
143.7097637037037146
 21
61.3940964444444504
 31
0.0
  0
LINE
  5
A0
100
AcDbEntity
  8
0
 62
256
370
-1
 48
1.0
  6
BYLAYER
100
AcDbLine
 10
143.7097637037037146
 20
61.3940964444444504
 30
0.0
 11
143.7097637037037146
 21
14.0180964444444669
 31
0.0
  0
LINE
  5
A1
100
AcDbEntity
  8
0
 62
256
370
-1
 48
1.0
  6
BYLAYER
100
AcDbLine
 10
143.7097637037037146
 20
14.0180964444444669
 30
0.0
 11
125.85376370370372
 21
14.0180964444444669
 31
0.0
  0
LINE
  5
A2
100
AcDbEntity
  8
0
 62
256
370
-1
 48
1.0
  6
BYLAYER
100
AcDbLine
 10
125.85376370370372
 20
14.0180964444444669
 30
0.0
 11
125.85376370370372
 21
61.3940964444444504
 31
0.0
  0
LINE
  5
A3
100
AcDbEntity
  8
0
 62
256
370
-1
 48
1.0
  6
BYLAYER
100
AcDbLine
 10
144.0
 20
41.0
 30
0.0
 11
165.0
 21
41.0
 31
0.0
  0
LINE
  5
A4
100
AcDbEntity
  8
0
 62
256
370
-1
 48
1.0
  6
BYLAYER
100
AcDbLine
 10
165.0
 20
41.0
 30
0.0
 11
165.0
 21
10.0
 31
0.0
  0
LINE
  5
A5
100
AcDbEntity
  8
0
 62
256
370
-1
 48
1.0
  6
BYLAYER
100
AcDbLine
 10
165.0
 20
10.0
 30
0.0
 11
198.1963199999999006
 21
10.0
 31
0.0
  0
LINE
  5
A6
100
AcDbEntity
  8
0
 62
256
370
-1
 48
1.0
  6
BYLAYER
100
AcDbLine
 10
198.0
 20
12.0
 30
0.0
 11
169.0
 21
12.0
 31
0.0
  0
LINE
  5
A7
100
AcDbEntity
  8
0
 62
256
370
-1
 48
1.0
  6
BYLAYER
100
AcDbLine
 10
169.0
 20
12.0
 30
0.0
 11
169.0
 21
55.0
 31
0.0
  0
LINE
  5
A8
100
AcDbEntity
  8
0
 62
256
370
-1
 48
1.0
  6
BYLAYER
100
AcDbLine
 10
169.0
 20
55.0
 30
0.0
 11
143.7097637037037146
 21
55.0
 31
0.0
  0
LINE
  5
A9
100
AcDbEntity
  8
0
 62
256
370
-1
 48
1.0
  6
BYLAYER
100
AcDbLine
 10
143.7097637037037146
 20
37.7060964444444551
 30
0.0
 11
162.0136243883574139
 21
37.7060964444444551
 31
0.0
  0
LINE
  5
AA
100
AcDbEntity
  8
0
 62
256
370
-1
 48
1.0
  6
BYLAYER
100
AcDbLine
 10
162.0136243883574139
 20
37.7060964444444551
 30
0.0
 11
162.0
 21
7.0
 31
0.0
  0
LINE
  5
AB
100
AcDbEntity
  8
0
 62
256
370
-1
 48
1.0
  6
BYLAYER
100
AcDbLine
 10
162.0
 20
7.0
 30
0.0
 11
198.1963199999999006
 21
7.0
 31
0.0
  0
LINE
  5
AC
100
AcDbEntity
  8
0
 62
256
370
-1
 48
1.0
  6
BYLAYER
100
AcDbLine
 10
198.1988933333333307
 20
3.9724112592592746
 30
0.0
 11
158.0
 21
4.0
 31
0.0
  0
LINE
  5
AD
100
AcDbEntity
  8
0
 62
256
370
-1
 48
1.0
  6
BYLAYER
100
AcDbLine
 10
158.0
 20
4.0
 30
0.0
 11
158.0
 21
50.0
 31
0.0
  0
LINE
  5
AE
100
AcDbEntity
  8
0
 62
256
370
-1
 48
1.0
  6
BYLAYER
100
AcDbLine
 10
158.0
 20
50.0
 30
0.0
 11
143.7097637037037146
 21
50.0
 31
0.0
  0
LINE
  5
AF
100
AcDbEntity
  8
0
 62
256
370
-1
 48
1.0
  6
BYLAYER
100
AcDbLine
 10
201.8068933333333064
 20
78.5324112592592627
 30
0.0
 11
218.6548933333332911
 21
78.5324112592592627
 31
0.0
  0
LINE
  5
B0
100
AcDbEntity
  8
0
 62
256
370
-1
 48
1.0
  6
BYLAYER
100
AcDbLine
 10
218.6548933333332911
 20
78.5324112592592627
 30
0.0
 11
218.6548933333332911
 21
62.4044112592592768
 31
0.0
  0
LINE
  5
B1
100
AcDbEntity
  8
0
 62
256
370
-1
 48
1.0
  6
BYLAYER
100
AcDbLine
 10
218.6548933333332911
 20
62.4044112592592768
 30
0.0
 11
201.8068933333333064
 21
62.4044112592592768
 31
0.0
  0
LINE
  5
B2
100
AcDbEntity
  8
0
 62
256
370
-1
 48
1.0
  6
BYLAYER
100
AcDbLine
 10
201.8068933333333064
 20
62.4044112592592768
 30
0.0
 11
201.8068933333333064
 21
78.5324112592592627
 31
0.0
  0
LINE
  5
B3
100
AcDbEntity
  8
0
 62
256
370
-1
 48
1.0
  6
BYLAYER
100
AcDbLine
 10
201.0
 20
72.0
 30
0.0
 11
201.8068933333333064
 21
72.0
 31
0.0
  0
LINE
  5
B4
100
AcDbEntity
  8
0
 62
256
370
-1
 48
1.0
  6
BYLAYER
100
AcDbLine
 10
201.8068933333333064
 20
72.0
 30
0.0
 11
116.5564585953986239
 21
72.0000000000000142
 31
0.0
  0
LINE
  5
B5
100
AcDbEntity
  8
0
 62
256
370
-1
 48
1.0
  6
BYLAYER
100
AcDbLine
 10
116.5564585953986239
 20
72.0000000000000142
 30
0.0
 11
116.5564585953986096
 21
26.97685248911624
 31
0.0
  0
LINE
  5
B6
100
AcDbEntity
  8
0
 62
256
370
-1
 48
1.0
  6
BYLAYER
100
AcDbLine
 10
116.5564585953986096
 20
26.97685248911624
 30
0.0
 11
125.85376370370372
 21
26.97685248911624
 31
0.0
  0
LINE
  5
B7
100
AcDbEntity
  8
0
 62
256
370
-1
 48
1.0
  6
BYLAYER
100
AcDbLine
 10
169.0
 20
54.9999999999999929
 30
0.0
 11
169.0
 21
75.0
 31
0.0
  0
LINE
  5
B8
100
AcDbEntity
  8
0
 62
256
370
-1
 48
1.0
  6
BYLAYER
100
AcDbLine
 10
169.0
 20
75.0
 30
0.0
 11
201.8068933333333064
 21
75.0
 31
0.0
  0
LINE
  5
B9
100
AcDbEntity
  8
0
 62
256
370
-1
 48
1.0
  6
BYLAYER
100
AcDbLine
 10
202.0
 20
69.0
 30
0.0
 11
149.0
 21
69.0
 31
0.0
  0
LINE
  5
BA
100
AcDbEntity
  8
0
 62
256
370
-1
 48
1.0
  6
BYLAYER
100
AcDbLine
 10
149.0
 20
69.0
 30
0.0
 11
149.0
 21
18.0
 31
0.0
  0
LINE
  5
BB
100
AcDbEntity
  8
0
 62
256
370
-1
 48
1.0
  6
BYLAYER
100
AcDbLine
 10
149.0
 20
18.0
 30
0.0
 11
143.7097637037037146
 21
18.0
 31
0.0
  0
LINE
  5
BC
100
AcDbEntity
  8
0
 62
256
370
-1
 48
1.0
  6
BYLAYER
100
AcDbLine
 10
202.0
 20
65.0
 30
0.0
 11
115.0
 21
65.0
 31
0.0
  0
LINE
  5
BD
100
AcDbEntity
  8
0
 62
256
370
-1
 48
1.0
  6
BYLAYER
100
AcDbLine
 10
115.0
 20
65.0
 30
0.0
 11
115.0
 21
18.0
 31
0.0
  0
LINE
  5
BE
100
AcDbEntity
  8
0
 62
256
370
-1
 48
1.0
  6
BYLAYER
100
AcDbLine
 10
115.0
 20
18.0
 30
0.0
 11
125.85376370370372
 21
18.0
 31
0.0
  0
LINE
  5
BF
100
AcDbEntity
  8
0
 62
256
370
-1
 48
1.0
  6
BYLAYER
100
AcDbLine
 10
219.0
 20
75.0
 30
0.0
 11
222.0
 21
75.0
 31
0.0
  0
LINE
  5
C0
100
AcDbEntity
  8
0
 62
256
370
-1
 48
1.0
  6
BYLAYER
100
AcDbLine
 10
222.0
 20
75.0
 30
0.0
 11
222.0
 21
81.0
 31
0.0
  0
LINE
  5
C1
100
AcDbEntity
  8
0
 62
256
370
-1
 48
1.0
  6
BYLAYER
100
AcDbLine
 10
222.0
 20
81.0
 30
0.0
 11
146.0
 21
81.0
 31
0.0
  0
LINE
  5
C2
100
AcDbEntity
  8
0
 62
256
370
-1
 48
1.0
  6
BYLAYER
100
AcDbLine
 10
146.0
 20
81.0
 30
0.0
 11
146.0
 21
21.0
 31
0.0
  0
LINE
  5
C3
100
AcDbEntity
  8
0
 62
256
370
-1
 48
1.0
  6
BYLAYER
100
AcDbLine
 10
146.0
 20
21.0
 30
0.0
 11
143.7097637037037146
 21
20.9999999999999929
 31
0.0
  0
LINE
  5
C4
100
AcDbEntity
  8
0
 62
256
370
-1
 48
1.0
  6
BYLAYER
100
AcDbLine
 10
219.0
 20
72.0
 30
0.0
 11
226.0
 21
72.0
 31
0.0
  0
LINE
  5
C5
100
AcDbEntity
  8
0
 62
256
370
-1
 48
1.0
  6
BYLAYER
100
AcDbLine
 10
226.0
 20
72.0
 30
0.0
 11
226.0
 21
83.0
 31
0.0
  0
LINE
  5
C6
100
AcDbEntity
  8
0
 62
256
370
-1
 48
1.0
  6
BYLAYER
100
AcDbLine
 10
226.0
 20
83.0
 30
0.0
 11
119.0
 21
83.0
 31
0.0
  0
LINE
  5
C7
100
AcDbEntity
  8
0
 62
256
370
-1
 48
1.0
  6
BYLAYER
100
AcDbLine
 10
119.0
 20
83.0
 30
0.0
 11
119.0
 21
24.0
 31
0.0
  0
LINE
  5
C8
100
AcDbEntity
  8
0
 62
256
370
-1
 48
1.0
  6
BYLAYER
100
AcDbLine
 10
119.0
 20
24.0
 30
0.0
 11
125.85376370370372
 21
24.0
 31
0.0
  0
LINE
  5
C9
100
AcDbEntity
  8
0
 62
256
370
-1
 48
1.0
  6
BYLAYER
100
AcDbLine
 10
218.6519859259257714
 20
68.596614962962974
 30
0.0
 11
228.9819859259258408
 21
68.5599482962963123
 31
0.0
  0
LINE
  5
CA
100
AcDbEntity
  8
0
 62
256
370
-1
 48
1.0
  6
BYLAYER
100
AcDbLine
 10
228.9819859259258408
 20
68.5599482962963123
 30
0.0
 11
228.9819859259258408
 21
85.4837776501984479
 31
0.0
  0
LINE
  5
CB
100
AcDbEntity
  8
0
 62
256
370
-1
 48
1.0
  6
BYLAYER
100
AcDbLine
 10
228.9819859259258408
 20
85.4837776501984479
 30
0.0
 11
121.6905884970167477
 21
85.4837776501984621
 31
0.0
  0
LINE
  5
CC
100
AcDbEntity
  8
0
 62
256
370
-1
 48
1.0
  6
BYLAYER
100
AcDbLine
 10
121.6905884970167477
 20
85.4837776501984621
 30
0.0
 11
121.6905884970167335
 21
20.9158056901096927
 31
0.0
  0
LINE
  5
CD
100
AcDbEntity
  8
0
 62
256
370
-1
 48
1.0
  6
BYLAYER
100
AcDbLine
 10
121.6905884970167335
 20
20.9158056901096927
 30
0.0
 11
125.85376370370372
 21
20.9158056901096927
 31
0.0
  0
LINE
  5
CE
100
AcDbEntity
  8
0
 62
256
370
-1
 48
1.0
  6
BYLAYER
100
AcDbLine
 10
37.5464659259258937
 20
64.2591482962962885
 30
0.0
 11
47.4997459259258861
 21
64.2591482962962885
 31
0.0
  0
LINE
  5
CF
100
AcDbEntity
  8
0
 62
256
370
-1
 48
1.0
  6
BYLAYER
100
AcDbLine
 10
47.4997459259258861
 20
64.2591482962962885
 30
0.0
 11
47.4997459259258861
 21
48.4997882962963018
 31
0.0
  0
LINE
  5
D0
100
AcDbEntity
  8
0
 62
256
370
-1
 48
1.0
  6
BYLAYER
100
AcDbLine
 10
47.4997459259258861
 20
48.4997882962963018
 30
0.0
 11
37.5464659259258937
 21
48.4997882962963018
 31
0.0
  0
LINE
  5
D1
100
AcDbEntity
  8
0
 62
256
370
-1
 48
1.0
  6
BYLAYER
100
AcDbLine
 10
37.5464659259258937
 20
48.4997882962963018
 30
0.0
 11
37.5464659259258937
 21
64.2591482962962885
 31
0.0
  0
LINE
  5
D2
100
AcDbEntity
  8
0
 62
256
370
-1
 48
1.0
  6
BYLAYER
100
AcDbLine
 10
37.3391059259258853
 20
45.8041082962962918
 30
0.0
 11
47.7071059259258803
 21
45.8041082962962918
 31
0.0
  0
LINE
  5
D3
100
AcDbEntity
  8
0
 62
256
370
-1
 48
1.0
  6
BYLAYER
100
AcDbLine
 10
47.7071059259258803
 20
45.8041082962962918
 30
0.0
 11
47.7071059259258803
 21
29.0079482962963056
 31
0.0
  0
LINE
  5
D4
100
AcDbEntity
  8
0
 62
256
370
-1
 48
1.0
  6
BYLAYER
100
AcDbLine
 10
47.7071059259258803
 20
29.0079482962963056
 30
0.0
 11
37.3391059259258853
 21
29.0079482962963056
 31
0.0
  0
LINE
  5
D5
100
AcDbEntity
  8
0
 62
256
370
-1
 48
1.0
  6
BYLAYER
100
AcDbLine
 10
37.3391059259258853
 20
29.0079482962963056
 30
0.0
 11
37.3391059259258853
 21
45.8041082962962918
 31
0.0
  0
LINE
  5
D6
100
AcDbEntity
  8
0
 62
256
370
-1
 48
1.0
  6
BYLAYER
100
AcDbLine
 10
47.6773459259258772
 20
59.7212282962962888
 30
0.0
 11
108.7631216842806055
 21
59.7212282962962888
 31
0.0
  0
LINE
  5
D7
100
AcDbEntity
  8
0
 62
256
370
-1
 48
1.0
  6
BYLAYER
100
AcDbLine
 10
108.7631216842806055
 20
59.7212282962962888
 30
0.0
 11
108.7631216842806055
 21
49.9216289393527362
 31
0.0
  0
LINE
  5
D8
100
AcDbEntity
  8
0
 62
256
370
-1
 48
1.0
  6
BYLAYER
100
AcDbLine
 10
108.7631216842806055
 20
49.9216289393527362
 30
0.0
 11
125.85376370370372
 21
49.9216289393527362
 31
0.0
  0
LINE
  5
D9
100
AcDbEntity
  8
0
 62
256
370
-1
 48
1.0
  6
BYLAYER
100
AcDbLine
 10
108.7631216842806055
 20
49.921628939352729
 30
0.0
 11
108.7631216842806055
 21
42.0186754047272331
 31
0.0
  0
LINE
  5
DA
100
AcDbEntity
  8
0
 62
256
370
-1
 48
1.0
  6
BYLAYER
100
AcDbLine
 10
108.7631216842806055
 20
42.0186754047272331
 30
0.0
 11
47.7071059259258803
 21
42.0186754047272331
 31
0.0
  0
LINE
  5
DB
100
AcDbEntity
  8
0
 62
256
370
-1
 48
1.0
  6
BYLAYER
100
AcDbLine
 10
157.9573459259258357
 20
12.201228296296307
 30
0.0
 11
49.7149512739227362
 21
12.2012282962963194
 31
0.0
  0
LINE
  5
DC
100
AcDbEntity
  8
0
 62
256
370
-1
 48
1.0
  6
BYLAYER
100
AcDbLine
 10
49.7149512739227362
 20
12.2012282962963194
 30
0.0
 11
49.7149512739227362
 21
50.0010747918172811
 31
0.0
  0
LINE
  5
DD
100
AcDbEntity
  8
0
 62
256
370
-1
 48
1.0
  6
BYLAYER
100
AcDbLine
 10
49.7149512739227362
 20
50.0010747918172811
 30
0.0
 11
47.4997459259258861
 21
50.0010747918172811
 31
0.0
  0
LINE
  5
DE
100
AcDbEntity
  8
0
 62
256
370
-1
 48
1.0
  6
BYLAYER
100
AcDbLine
 10
47.7071059259258803
 20
32.3612282962963036
 30
0.0
 11
49.7149512739227362
 21
32.3612282962963036
 31
0.0
  0
LINE
  5
DF
100
AcDbEntity
  8
0
 62
256
370
-1
 48
1.0
  6
BYLAYER
100
AcDbLine
 10
47.5573459259258797
 20
54.3212282962962973
 30
0.0
 11
105.3016651270386319
 21
54.3212282962962973
 31
0.0
  0
LINE
  5
E0
100
AcDbEntity
  8
0
 62
256
370
-1
 48
1.0
  6
BYLAYER
100
AcDbLine
 10
105.3016651270386319
 20
54.3212282962962973
 30
0.0
 11
105.2773459259258715
 21
47.4812282962962939
 31
0.0
  0
LINE
  5
E1
100
AcDbEntity
  8
0
 62
256
370
-1
 48
1.0
  6
BYLAYER
100
AcDbLine
 10
105.2773459259258715
 20
47.4812282962962939
 30
0.0
 11
125.85376370370372
 21
47.4812282962962939
 31
0.0
  0
LINE
  5
E2
100
AcDbEntity
  8
0
 62
256
370
-1
 48
1.0
  6
BYLAYER
100
AcDbLine
 10
47.4997459259258861
 20
56.3794682962962952
 30
0.0
 11
103.121773009246013
 21
56.3794682962962952
 31
0.0
  0
LINE
  5
E3
100
AcDbEntity
  8
0
 62
256
370
-1
 48
1.0
  6
BYLAYER
100
AcDbLine
 10
103.121773009246013
 20
56.3794682962962952
 30
0.0
 11
103.1173459259258607
 21
44.0012282962962971
 31
0.0
  0
LINE
  5
E4
100
AcDbEntity
  8
0
 62
256
370
-1
 48
1.0
  6
BYLAYER
100
AcDbLine
 10
103.1173459259258607
 20
44.0012282962962971
 30
0.0
 11
125.85376370370372
 21
44.0012282962962971
 31
0.0
  0
LINE
  5
E5
100
AcDbEntity
  8
0
 62
256
370
-1
 48
1.0
  6
BYLAYER
100
AcDbLine
 10
47.9173459259258792
 20
35.8412282962963005
 30
0.0
 11
111.7577970521514601
 21
35.8412282962963005
 31
0.0
  0
LINE
  5
E6
100
AcDbEntity
  8
0
 62
256
370
-1
 48
1.0
  6
BYLAYER
100
AcDbLine
 10
111.7577970521514601
 20
35.8412282962963005
 30
0.0
 11
111.7573459259258613
 21
41.1212282962963016
 31
0.0
  0
LINE
  5
E7
100
AcDbEntity
  8
0
 62
256
370
-1
 48
1.0
  6
BYLAYER
100
AcDbLine
 10
111.7573459259258613
 20
41.1212282962963016
 30
0.0
 11
125.85376370370372
 21
41.1212282962963016
 31
0.0
  0
LINE
  5
E8
100
AcDbEntity
  8
0
 62
256
370
-1
 48
1.0
  6
BYLAYER
100
AcDbLine
 10
48.0
 20
39.0
 30
0.0
 11
124.0
 21
39.0
 31
0.0
  0
LINE
  5
E9
100
AcDbEntity
  8
0
 62
256
370
-1
 48
1.0
  6
BYLAYER
100
AcDbLine
 10
124.0
 20
39.0
 30
0.0
 11
124.0
 21
38.0
 31
0.0
  0
LINE
  5
EA
100
AcDbEntity
  8
0
 62
256
370
-1
 48
1.0
  6
BYLAYER
100
AcDbLine
 10
124.0
 20
38.0
 30
0.0
 11
125.85376370370372
 21
38.0
 31
0.0
  0
CIRCLE
  5
EB
100
AcDbEntity
  8
0
 62
256
370
-1
 48
1.0
  6
BYLAYER
100
AcDbCircle
 10
49.7149512739227362
 20
32.3612282962962965
 30
0.0
 40
0.0
  0
CIRCLE
  5
EC
100
AcDbEntity
  8
0
 62
256
370
-1
 48
1.0
  6
BYLAYER
100
AcDbCircle
 10
169.0
 20
55.0
 30
0.0
 40
1.0
  0
CIRCLE
  5
ED
100
AcDbEntity
  8
0
 62
256
370
-1
 48
1.0
  6
BYLAYER
100
AcDbCircle
 10
49.7149512739227362
 20
32.3612282962962894
 30
0.0
 40
1.3348543405322988
  0
MTEXT
  5
EE
100
AcDbEntity
  8
0
 62
256
370
-1
 48
1.0
  6
BYLAYER
100
AcDbMText
 10
45.0318550108596369
 20
27.0649198766575267
 30
0.0
 40
1.0
 41
0.0
 71
3
 72
1
  1
\FStandard|c0;HC-SR04
  7
textstyle15
 50
0.0
 73
2
 44
1.0
  0
MTEXT
  5
EF
100
AcDbEntity
  8
0
 62
256
370
-1
 48
1.0
  6
BYLAYER
100
AcDbMText
 10
44.1678550108596397
 20
67.1545198766575169
 30
0.0
 40
1.0
 41
0.0
 71
3
 72
1
  1
\FStandard|c0;HC-SR04
  7
textstyle16
 50
0.0
 73
2
 44
1.0
  0
MTEXT
  5
F0
100
AcDbEntity
  8
0
 62
256
370
-1
 48
1.0
  6
BYLAYER
100
AcDbMText
 10
138.8622550108595988
 20
63.5257198766575186
 30
0.0
 40
1.0
 41
0.0
 71
3
 72
1
  1
Arduino nano
  7
textstyle6
 50
0.0
 73
2
 44
1.0
  0
MTEXT
  5
F1
100
AcDbEntity
  8
0
 62
256
370
-1
 48
1.0
  6
BYLAYER
100
AcDbMText
 10
213.3390550108595676
 20
79.5961198766575251
 30
0.0
 40
1.0
 41
0.0
 71
3
 72
1
  1
NRF24L01
  7
textstyle3
 50
0.0
 73
2
 44
1.0
  0
MTEXT
  5
F2
100
AcDbEntity
  8
0
 62
256
370
-1
 48
1.0
  6
BYLAYER
100
AcDbMText
 10
230.0
 20
20.0
 30
0.0
 40
1.0
 41
0.0
 71
3
 72
1
  1
PCA9685
  7
textstyle1
 50
0.0
 73
2
 44
1.0
  0
ENDSEC
  0
SECTION
  2
OBJECTS
  0
DICTIONARY
  5
C
100
AcDbDictionary
280
0
281
1
  3
ACAD_GROUP
350
D
  3
ACAD_LAYOUT
350
1A
  3
ACAD_MLINESTYLE
350
17
  3
ACAD_PLOTSETTINGS
350
19
  3
ACAD_PLOTSTYLENAME
350
E
  3
AcDbVariableDictionary
350
F3
  3
QCAD_OBJECTS
350
F4
  0
DICTIONARY
  5
D
100
AcDbDictionary
280
0
281
1
  0
ACDBDICTIONARYWDFLT
  5
E
100
AcDbDictionary
281
1
  3
Normal
350
F
100
AcDbDictionaryWithDefault
340
F
  0
ACDBPLACEHOLDER
  5
F
  0
DICTIONARY
  5
17
100
AcDbDictionary
280
0
281
1
  3
Standard
350
18
  0
MLINESTYLE
  5
18
100
AcDbMlineStyle
  2
STANDARD
 70
0
  3

 62
256
 51
90.0
 52
90.0
 71
2
 49
0.5
 62
256
  6
BYLAYER
 49
-0.5
 62
256
  6
BYLAYER
  0
DICTIONARY
  5
19
100
AcDbDictionary
280
0
281
1
  0
DICTIONARY
  5
1A
100
AcDbDictionary
281
1
  3
Layout1
350
1E
  3
Layout2
350
26
  3
Model
350
22
  0
LAYOUT
  5
1E
100
AcDbPlotSettings
  1

  2
none_device
  4

  6

 40
0.0
 41
0.0
 42
0.0
 43
0.0
 44
0.0
 45
0.0
 46
0.0
 47
0.0
 48
0.0
 49
0.0
140
0.0
141
0.0
142
1.0
143
1.0
 70
688
 72
0
 73
0
 74
5
  7

 75
16
147
1.0
148
0.0
149
0.0
100
AcDbLayout
  1
Layout1
 70
1
 71
1
 10
0.0
 20
0.0
 11
420.0
 21
297.0
 12
0.0
 22
0.0
 32
0.0
 14
100000000000000000000.0
 24
100000000000000000000.0
 34
100000000000000000000.0
 15
-100000000000000000000.0
 25
-100000000000000000000.0
 35
-100000000000000000000.0
146
0.0
 13
0.0
 23
0.0
 33
0.0
 16
1.0
 26
0.0
 36
0.0
 17
0.0
 27
1.0
 37
0.0
 76
0
330
1B
  0
LAYOUT
  5
22
100
AcDbPlotSettings
  1

  2
none_device
  4

  6

 40
0.0
 41
0.0
 42
0.0
 43
0.0
 44
0.0
 45
0.0
 46
0.0
 47
0.0
 48
0.0
 49
0.0
140
0.0
141
0.0
142
1.0
143
1.0
 70
1712
 72
0
 73
0
 74
0
  7

 75
0
147
1.0
148
0.0
149
0.0
100
AcDbLayout
  1
Model
 70
1
 71
0
 10
0.0
 20
0.0
 11
12.0
 21
9.0
 12
0.0
 22
0.0
 32
0.0
 14
0.0
 24
0.0
 34
0.0
 15
0.0
 25
0.0
 35
0.0
146
0.0
 13
0.0
 23
0.0
 33
0.0
 16
1.0
 26
0.0
 36
0.0
 17
0.0
 27
1.0
 37
0.0
 76
0
330
1F
  0
LAYOUT
  5
26
100
AcDbPlotSettings
  1

  2
none_device
  4

  6

 40
0.0
 41
0.0
 42
0.0
 43
0.0
 44
0.0
 45
0.0
 46
0.0
 47
0.0
 48
0.0
 49
0.0
140
0.0
141
0.0
142
1.0
143
1.0
 70
688
 72
0
 73
0
 74
5
  7

 75
16
147
1.0
148
0.0
149
0.0
100
AcDbLayout
  1
Layout2
 70
1
 71
2
 10
0.0
 20
0.0
 11
12.0
 21
9.0
 12
0.0
 22
0.0
 32
0.0
 14
0.0
 24
0.0
 34
0.0
 15
0.0
 25
0.0
 35
0.0
146
0.0
 13
0.0
 23
0.0
 33
0.0
 16
1.0
 26
0.0
 36
0.0
 17
0.0
 27
1.0
 37
0.0
 76
0
330
23
  0
DICTIONARY
  5
F3
100
AcDbDictionary
281
1
  3
DIMASSOC
350
F6
  3
HIDETEXT
350
F5
  0
DICTIONARYVAR
  5
F5
100
DictionaryVariables
280
0
  1
2
  0
DICTIONARYVAR
  5
F6
100
DictionaryVariables
280
0
  1
1
  0
DICTIONARY
  5
F4
100
AcDbDictionary
281
1
  3
ColorSettings/BackgroundColor
350
F7
  3
ColorSettings/ColorMode
350
F8
  3
Grid/DisplayGrid00
350
F9
  3
Grid/DisplayGrid01
350
FA
  3
Grid/DisplayGrid02
350
FB
  3
Grid/DisplayGrid03
350
FC
  3
Grid/GridSpacingX00
350
FD
  3
Grid/GridSpacingX01
350
FE
  3
Grid/GridSpacingX02
350
FF
  3
Grid/GridSpacingX03
350
100
  3
Grid/GridSpacingY00
350
101
  3
Grid/GridSpacingY01
350
102
  3
Grid/GridSpacingY02
350
103
  3
Grid/GridSpacingY03
350
104
  3
Grid/IsometricGrid00
350
105
  3
Grid/IsometricGrid01
350
106
  3
Grid/IsometricGrid02
350
107
  3
Grid/IsometricGrid03
350
108
  3
Grid/IsometricProjection00
350
109
  3
Grid/IsometricProjection01
350
10A
  3
Grid/IsometricProjection02
350
10B
  3
Grid/IsometricProjection03
350
10C
  3
Grid/MetaGridSpacingX00
350
10D
  3
Grid/MetaGridSpacingX01
350
10E
  3
Grid/MetaGridSpacingX02
350
10F
  3
Grid/MetaGridSpacingX03
350
110
  3
Grid/MetaGridSpacingY00
350
111
  3
Grid/MetaGridSpacingY01
350
112
  3
Grid/MetaGridSpacingY02
350
113
  3
Grid/MetaGridSpacingY03
350
114
  3
MultiPageSettings/Columns
350
115
  3
MultiPageSettings/GlueMarginsBottom
350
116
  3
MultiPageSettings/GlueMarginsLeft
350
117
  3
MultiPageSettings/GlueMarginsRight
350
118
  3
MultiPageSettings/GlueMarginsTop
350
119
  3
MultiPageSettings/PrintCropMarks
350
11A
  3
MultiPageSettings/Rows
350
11B
  3
PageSettings/OffsetX
350
11C
  3
PageSettings/OffsetY
350
11D
  3
PageSettings/PageOrientation
350
11E
  3
PageSettings/PaperHeight
350
11F
  3
PageSettings/PaperWidth
350
120
  3
PageSettings/Scale
350
121
  3
PageSettings/ShowPaperBorders
350
122
  3
PageTagSettings/EnablePageTags
350
123
  3
PageTagSettings/TagAlignment
350
124
  3
PageTagSettings/TagFont
350
125
  3
PageTagSettings/TagPosition
350
126
  3
QCADVersion
350
127
  3
UnitSettings/PaperUnit
350
128
  3
ViewportCenter
350
129
  3
ViewportHeight
350
12A
  3
ViewportWidth
350
12B
  0
XRECORD
  5
F8
330
F4
100
AcDbXrecord
280
1
1000
FullColor
  0
XRECORD
  5
F9
330
F4
100
AcDbXrecord
280
1
290
1
  0
XRECORD
  5
FA
330
F4
100
AcDbXrecord
280
1
290
1
  0
XRECORD
  5
FB
330
F4
100
AcDbXrecord
280
1
290
1
  0
XRECORD
  5
FC
330
F4
100
AcDbXrecord
280
1
290
1
  0
XRECORD
  5
FD
330
F4
100
AcDbXrecord
280
1
1000
auto
  0
XRECORD
  5
FE
330
F4
100
AcDbXrecord
280
1
1000
auto
  0
XRECORD
  5
FF
330
F4
100
AcDbXrecord
280
1
1000
auto
  0
XRECORD
  5
100
330
F4
100
AcDbXrecord
280
1
1000
auto
  0
XRECORD
  5
101
330
F4
100
AcDbXrecord
280
1
1000
auto
  0
XRECORD
  5
102
330
F4
100
AcDbXrecord
280
1
1000
auto
  0
XRECORD
  5
103
330
F4
100
AcDbXrecord
280
1
1000
auto
  0
XRECORD
  5
104
330
F4
100
AcDbXrecord
280
1
1000
auto
  0
XRECORD
  5
105
330
F4
100
AcDbXrecord
280
1
290
0
  0
XRECORD
  5
106
330
F4
100
AcDbXrecord
280
1
290
0
  0
XRECORD
  5
107
330
F4
100
AcDbXrecord
280
1
290
0
  0
XRECORD
  5
108
330
F4
100
AcDbXrecord
280
1
290
0
  0
XRECORD
  5
109
330
F4
100
AcDbXrecord
280
1
 90
65537
  0
XRECORD
  5
10A
330
F4
100
AcDbXrecord
280
1
 90
65537
  0
XRECORD
  5
10B
330
F4
100
AcDbXrecord
280
1
 90
65537
  0
XRECORD
  5
10C
330
F4
100
AcDbXrecord
280
1
 90
65537
  0
XRECORD
  5
10D
330
F4
100
AcDbXrecord
280
1
1000
auto
  0
XRECORD
  5
10E
330
F4
100
AcDbXrecord
280
1
1000
auto
  0
XRECORD
  5
10F
330
F4
100
AcDbXrecord
280
1
1000
auto
  0
XRECORD
  5
110
330
F4
100
AcDbXrecord
280
1
1000
auto
  0
XRECORD
  5
111
330
F4
100
AcDbXrecord
280
1
1000
auto
  0
XRECORD
  5
112
330
F4
100
AcDbXrecord
280
1
1000
auto
  0
XRECORD
  5
113
330
F4
100
AcDbXrecord
280
1
1000
auto
  0
XRECORD
  5
114
330
F4
100
AcDbXrecord
280
1
1000
auto
  0
XRECORD
  5
115
330
F4
100
AcDbXrecord
280
1
 90
1
  0
XRECORD
  5
116
330
F4
100
AcDbXrecord
280
1
 40
10.0
  0
XRECORD
  5
117
330
F4
100
AcDbXrecord
280
1
 40
10.0
  0
XRECORD
  5
118
330
F4
100
AcDbXrecord
280
1
 40
10.0
  0
XRECORD
  5
119
330
F4
100
AcDbXrecord
280
1
 40
10.0
  0
XRECORD
  5
11A
330
F4
100
AcDbXrecord
280
1
290
0
  0
XRECORD
  5
11B
330
F4
100
AcDbXrecord
280
1
 90
1
  0
XRECORD
  5
11C
330
F4
100
AcDbXrecord
280
1
 40
0.0
  0
XRECORD
  5
11D
330
F4
100
AcDbXrecord
280
1
 40
0.0
  0
XRECORD
  5
11E
330
F4
100
AcDbXrecord
280
1
1000
Portrait
  0
XRECORD
  5
11F
330
F4
100
AcDbXrecord
280
1
 40
297.0
  0
XRECORD
  5
120
330
F4
100
AcDbXrecord
280
1
 40
210.0
  0
XRECORD
  5
121
330
F4
100
AcDbXrecord
280
1
1000
1:1
  0
XRECORD
  5
122
330
F4
100
AcDbXrecord
280
1
290
1
  0
XRECORD
  5
123
330
F4
100
AcDbXrecord
280
1
290
0
  0
XRECORD
  5
124
330
F4
100
AcDbXrecord
280
1
1000
Inside
  0
XRECORD
  5
125
330
F4
100
AcDbXrecord
280
1
1000
Arial,10,-1,5,400,0,0,0,0,0,0,0,0,0,0,1
  0
XRECORD
  5
126
330
F4
100
AcDbXrecord
280
1
1000
TopLeft
  0
XRECORD
  5
127
330
F4
100
AcDbXrecord
280
1
1000
3.32.3.1
  0
XRECORD
  5
128
330
F4
100
AcDbXrecord
280
1
 90
4
  0
XRECORD
  5
12A
330
F4
100
AcDbXrecord
280
1
 40
133.5743999999999687
  0
XRECORD
  5
12B
330
F4
100
AcDbXrecord
280
1
 40
303.2639999999998963
  0
ENDSEC
  0
EOF
